<?xml version="1.0" standalone="no"?>
<!DOCTYPE svg PUBLIC "-//W3C//DTD SVG 20010904//EN"
 "http://www.w3.org/TR/2001/REC-SVG-20010904/DTD/svg10.dtd">
<svg version="1.0" xmlns="http://www.w3.org/2000/svg"
 width="3072.000000pt" height="3072.000000pt" viewBox="0 0 3072.000000 3072.000000"
 preserveAspectRatio="xMidYMid meet">
<metadata>
Created by potrace 1.14, written by Peter Selinger 2001-2017
</metadata>
<g transform="translate(0.000000,3072.000000) scale(0.100000,-0.100000)"
fill="#000000" stroke="none">
<path d="M12575 27123 c-635 -26 -1127 -122 -1448 -284 -317 -160 -507 -346
-623 -609 -23 -52 -58 -122 -78 -154 -20 -33 -50 -96 -67 -140 -17 -45 -54
-134 -81 -200 -73 -173 -135 -369 -159 -503 -29 -159 -29 -347 -1 -453 11 -41
19 -76 17 -78 -1 -2 -40 -12 -86 -23 -301 -72 -709 -244 -987 -416 -179 -110
-330 -233 -483 -389 -244 -252 -327 -417 -336 -669 -5 -133 -4 -138 47 -410
27 -142 37 -368 20 -472 -13 -84 -76 -312 -133 -483 -82 -246 -96 -334 -107
-690 -14 -433 -26 -553 -85 -835 -41 -193 -63 -343 -110 -744 -52 -438 -65
-622 -65 -918 0 -226 2 -267 17 -298 9 -19 20 -35 25 -35 13 0 10 -33 -22
-235 -16 -105 -34 -261 -40 -347 -10 -155 -6 -197 21 -213 9 -6 10 -98 5 -394
-11 -604 -9 -766 13 -1070 l21 -284 -36 -421 c-51 -599 -52 -865 -6 -1273 l34
-291 -21 -29 c-11 -15 -50 -121 -86 -235 l-65 -206 -11 -244 c-5 -134 -12
-472 -14 -753 -2 -280 -8 -544 -13 -585 -6 -53 -5 -90 4 -125 7 -27 20 -102
29 -165 9 -63 31 -185 50 -270 19 -85 46 -241 60 -346 14 -106 36 -234 50
-285 13 -52 38 -144 54 -205 17 -63 39 -187 51 -290 30 -259 47 -317 134 -457
49 -79 125 -298 170 -490 15 -60 55 -195 90 -300 38 -111 84 -279 110 -398 59
-262 107 -403 203 -592 20 -40 67 -145 104 -235 81 -196 109 -245 206 -353 94
-105 150 -181 293 -393 81 -120 147 -203 229 -290 126 -133 165 -188 224 -315
51 -112 80 -149 133 -172 66 -30 229 -241 376 -488 131 -220 170 -266 331
-388 56 -43 175 -148 264 -234 165 -161 225 -207 396 -300 54 -29 151 -95 215
-147 217 -175 263 -199 474 -253 150 -38 213 -61 346 -128 152 -76 240 -109
344 -126 237 -40 266 -47 389 -100 69 -30 148 -59 175 -65 42 -10 179 -14 224
-7 8 1 51 -12 95 -30 118 -46 217 -63 433 -73 107 -5 222 -12 255 -15 34 -4
130 -2 212 4 165 11 168 10 345 -65 98 -41 192 -44 312 -9 66 19 140 31 253
40 229 19 300 40 433 129 58 38 82 47 177 65 156 29 556 140 780 215 542 183
1181 491 1925 928 440 259 761 496 1245 918 245 214 836 801 980 975 55 65
142 163 192 217 51 54 132 151 180 215 86 115 261 327 404 488 80 89 152 192
194 275 15 30 60 89 99 131 83 88 141 192 186 330 17 51 43 110 58 129 16 19
42 60 59 90 92 162 123 213 123 201 0 -34 78 97 155 261 47 100 112 223 144
273 111 171 149 265 231 565 74 273 116 496 147 795 15 147 17 283 18 1010 1
694 4 890 19 1125 21 330 18 721 -8 880 -15 98 -59 241 -103 340 -24 53 -25
59 -18 210 9 215 31 441 60 600 45 248 54 420 35 680 -5 69 -14 204 -20 300
-6 96 -20 312 -32 480 -12 168 -22 366 -22 440 -1 130 0 138 32 219 18 46 46
106 62 135 16 28 43 92 59 142 27 79 31 106 31 195 0 126 -19 219 -61 304 -41
84 -126 185 -201 241 -84 61 -147 79 -284 78 l-111 -1 -17 161 c-10 89 -24
206 -32 261 -40 272 -44 327 -44 540 0 150 -5 261 -17 345 -11 86 -17 207 -18
385 -2 221 -5 277 -23 372 -82 420 -247 881 -427 1190 -158 269 -471 737 -683
1022 -79 106 -86 118 -83 157 1 25 -5 56 -15 76 -18 35 -304 438 -336 475 -27
29 -19 37 44 52 109 24 154 75 146 165 -5 64 -30 114 -177 350 -137 219 -237
364 -359 515 -414 514 -890 947 -1412 1282 -476 306 -921 517 -1570 747 -733
260 -1511 458 -2540 646 -390 71 -617 95 -1210 126 -172 9 -895 11 -1085 3z
m364 -337 c10 -12 4 -16 -36 -21 -208 -26 -713 -122 -1028 -195 -115 -27 -309
-72 -430 -100 -121 -27 -278 -64 -348 -80 -165 -38 -172 -38 -122 5 105 92
364 218 535 261 122 30 343 67 596 99 288 37 363 42 605 44 177 1 219 -2 228
-13z m1711 -100 c52 -10 99 -22 105 -27 5 -5 -107 -9 -270 -9 -348 0 -930 -15
-1344 -35 -536 -26 -657 -20 -638 28 8 22 109 35 342 43 110 4 272 10 360 14
88 4 428 6 755 5 524 -1 606 -4 690 -19z m535 -215 c116 -11 319 -27 452 -35
190 -12 267 -21 357 -42 64 -15 116 -30 116 -33 -1 -33 -6 -33 -801 -32 -1047
2 -1584 12 -1601 29 -11 11 -9 17 10 33 52 41 230 79 467 99 186 15 762 4
1000 -19z m705 -236 c287 -28 358 -36 521 -60 92 -13 336 -58 543 -99 354 -71
387 -79 554 -142 97 -37 183 -69 189 -71 7 -3 10 -9 7 -14 -7 -13 -68 -11 -81
2 -20 20 -401 90 -698 129 -336 43 -394 51 -520 71 -563 89 -925 168 -925 201
0 12 184 4 410 -17z m710 -335 c242 -30 571 -95 810 -159 63 -17 306 -76 540
-131 584 -137 554 -128 696 -211 68 -40 123 -74 121 -75 -1 -1 -117 22 -257
52 -601 129 -922 194 -1191 239 -244 41 -696 134 -739 152 -8 3 -19 7 -25 7
-27 4 -88 20 -163 44 -66 21 -84 30 -88 48 -3 13 -3 28 1 33 8 14 184 14 295
1z m-5575 -246 c44 -8 94 -16 111 -18 125 -15 250 -44 265 -62 9 -11 4 -17
-27 -30 -33 -14 -72 -15 -274 -11 -129 3 -256 10 -281 17 -42 10 -49 9 -82
-12 -33 -21 -49 -48 -29 -48 5 0 18 -17 30 -39 16 -29 22 -55 22 -103 0 -58
-6 -76 -54 -175 -30 -61 -62 -136 -72 -167 -18 -56 -18 -56 5 -97 20 -34 21
-44 11 -68 -21 -52 -69 -62 -127 -25 -22 14 -23 21 -23 127 0 238 22 357 83
439 l21 28 -22 23 c-24 26 -27 53 -12 124 12 55 51 89 124 107 54 14 228 9
331 -10z m1602 -149 c164 -31 366 -69 448 -85 83 -16 209 -38 280 -50 72 -12
137 -24 145 -27 8 -4 18 -5 23 -5 4 1 28 -3 54 -8 25 -6 71 -13 102 -16 84 -7
101 -12 101 -33 0 -10 -7 -22 -17 -25 -18 -7 -161 7 -298 30 -49 8 -97 15
-105 15 -37 2 -310 42 -470 69 -163 28 -188 35 -375 109 -110 44 -197 80 -193
80 4 1 142 -24 305 -54z m803 -315 c69 -6 184 -17 255 -25 72 -8 177 -19 235
-24 452 -42 812 -78 1145 -112 215 -23 442 -46 505 -52 113 -12 115 -12 115
-37 l0 -25 -90 3 c-104 3 -758 50 -795 57 -14 2 -61 7 -105 10 -44 2 -199 14
-345 25 -146 10 -367 26 -491 35 l-226 16 -199 75 c-109 41 -183 72 -164 69
19 -2 91 -9 160 -15z m5010 -96 c156 -29 564 -158 710 -224 36 -16 102 -43
147 -59 44 -16 130 -50 190 -75 105 -45 111 -49 218 -156 103 -104 107 -110
70 -96 -22 7 -141 50 -265 94 -250 89 -310 113 -349 141 -62 45 -202 105 -431
186 -297 106 -410 160 -410 196 0 13 25 11 120 -7z m-6178 -39 c26 -14 70 -34
98 -45 28 -11 79 -33 113 -49 82 -39 243 -101 260 -101 7 0 19 6 26 13 10 10
11 9 6 -5 -4 -11 0 -20 13 -27 18 -10 399 -138 432 -146 8 -2 62 -20 120 -40
58 -20 143 -49 190 -65 47 -15 141 -48 210 -73 69 -25 193 -66 275 -92 83 -26
179 -57 215 -70 142 -50 499 -165 514 -165 9 0 16 -4 16 -8 0 -5 37 -19 83
-32 45 -13 87 -26 92 -30 12 -9 285 -106 420 -149 55 -18 114 -38 130 -46 66
-28 165 -56 176 -49 7 4 9 3 5 -4 -3 -6 9 -15 31 -22 21 -7 85 -29 143 -50
190 -68 323 -109 333 -103 6 4 7 1 2 -7 -6 -10 -4 -12 7 -7 9 3 19 2 24 -2 19
-16 104 -42 115 -35 7 4 9 3 6 -3 -4 -6 44 -25 121 -47 70 -20 190 -57 267
-81 704 -222 1299 -341 1975 -395 74 -6 144 -13 156 -15 25 -5 59 -34 91 -77
65 -89 161 -188 223 -231 178 -121 280 -201 280 -218 0 -4 17 -34 39 -66 21
-32 41 -67 44 -78 4 -11 20 -45 37 -75 16 -30 35 -66 40 -80 6 -13 14 -27 18
-30 7 -4 28 -38 79 -125 101 -171 130 -221 143 -243 8 -15 18 -30 23 -33 8 -6
135 -256 159 -314 9 -22 24 -60 33 -85 23 -62 35 -90 51 -122 8 -14 14 -32 14
-40 0 -7 7 -26 16 -43 16 -30 42 -97 48 -125 11 -46 70 -208 83 -229 8 -13 10
-21 5 -17 -11 7 -1 -39 23 -104 7 -19 21 -65 31 -102 9 -38 21 -68 25 -68 5 0
6 -7 3 -15 -4 -8 -1 -15 7 -15 7 0 10 -2 7 -6 -7 -6 4 -41 65 -219 25 -71 55
-173 67 -225 12 -52 30 -131 40 -175 24 -102 85 -403 105 -520 130 -749 164
-949 202 -1210 9 -66 20 -121 24 -123 5 -2 6 -9 3 -16 -3 -7 20 -178 50 -382
77 -520 81 -549 131 -934 85 -655 155 -1442 200 -2260 8 -151 22 -363 29 -470
8 -107 17 -251 21 -320 5 -108 16 -180 54 -340 18 -79 78 -161 134 -185 27
-11 37 -11 47 -2 10 9 11 9 5 -2 -6 -11 0 -13 28 -9 35 4 35 4 22 -22 -30 -53
-29 -53 -74 -29 -50 26 -116 27 -163 3 -18 -9 -72 -55 -119 -101 l-86 -84 -48
30 c-55 35 -141 56 -194 46 -20 -3 -66 -16 -102 -27 l-66 -21 -89 49 c-79 43
-96 49 -149 48 -64 0 -109 -18 -221 -90 -104 -66 -151 -64 -224 12 -109 111
-171 110 -330 -7 -51 -37 -106 -71 -121 -74 -19 -4 -50 3 -100 26 -93 40 -148
37 -274 -17 -104 -44 -106 -43 -125 64 -13 79 -44 130 -92 156 -22 12 -40 31
-47 52 -22 61 -114 124 -183 124 -22 0 -23 -11 7 112 45 183 43 274 -11 458
-9 30 -16 62 -16 70 0 17 -30 118 -50 168 -7 17 -19 32 -28 32 -11 0 -12 2 -3
8 9 6 8 14 -6 35 l-17 27 4 -63 c3 -44 10 -68 25 -84 11 -13 18 -23 14 -23 -3
0 -59 53 -124 118 -65 64 -153 146 -196 181 -42 35 -77 65 -77 67 0 1 32 -9
71 -23 39 -14 72 -23 75 -21 4 4 -122 62 -136 63 -3 0 -11 4 -17 8 -7 5 -18 5
-25 1 -7 -5 -8 -3 -4 5 5 8 3 11 -7 9 -14 -3 -206 107 -323 185 -76 50 -208
128 -309 182 -49 27 -157 85 -240 130 -224 122 -368 186 -533 236 -161 49
-243 61 -478 68 -141 4 -226 10 -235 17 -8 7 -70 41 -139 76 -69 36 -146 77
-171 91 -137 78 -226 117 -264 117 -11 0 -25 -8 -32 -19 -13 -21 -8 -28 77
-101 30 -25 58 -50 64 -55 6 -6 34 -29 61 -51 28 -21 61 -49 75 -61 14 -12 36
-30 50 -41 31 -25 43 -21 -190 -71 -231 -50 -401 -78 -555 -91 -203 -17 -193
-23 -100 73 86 87 150 184 187 282 46 126 21 397 -52 549 -51 109 -179 208
-303 236 -58 12 -94 0 -103 -35 -8 -34 12 -56 98 -106 94 -55 120 -80 152
-144 59 -122 70 -280 26 -397 -25 -67 -85 -150 -146 -200 -80 -66 -104 -64
-297 21 -149 66 -288 113 -392 131 -38 7 -80 18 -92 26 -12 7 -55 23 -95 35
-85 24 -373 38 -446 21 -24 -6 -44 -6 -48 -1 -3 5 -1 9 5 9 5 0 16 6 23 13 7
6 38 32 68 56 87 70 140 124 140 142 0 9 -9 24 -19 33 -21 20 -28 17 -104 -33
-54 -37 -422 -247 -507 -291 -36 -18 -116 -62 -179 -97 -149 -85 -317 -169
-398 -199 -81 -31 -172 -32 -228 -4 -42 21 -65 25 -65 11 0 -32 -194 51 -323
138 -108 73 -240 185 -336 287 -95 100 -191 217 -191 231 0 6 11 18 24 26 33
22 46 95 20 114 -32 23 -77 14 -176 -34 -105 -52 -108 -55 -108 -156 0 -35 -1
-37 -16 -23 -8 9 -23 16 -32 17 -35 2 -67 -3 -70 -12 -2 -5 -12 -9 -22 -9 -10
0 -28 -12 -39 -27 -12 -16 -25 -33 -31 -40 -5 -7 -10 -16 -10 -22 0 -5 -4 -11
-8 -13 -11 -4 -76 -132 -101 -199 -23 -59 -30 -189 -10 -189 5 0 7 -4 4 -10
-15 -25 115 -219 149 -220 4 0 25 -13 45 -29 26 -21 41 -27 52 -20 7 5 19 9
24 8 6 0 0 -5 -13 -12 -12 -7 -20 -16 -17 -19 4 -3 -3 -9 -15 -13 -79 -25
-823 -383 -1067 -514 -83 -44 -113 -56 -117 -46 -3 10 0 12 11 8 12 -5 14 -3
8 7 -6 10 -4 12 8 7 10 -3 17 -2 17 3 0 6 6 10 13 10 7 0 24 11 39 25 15 14
31 25 36 25 5 0 23 12 40 28 18 15 49 41 69 57 69 56 218 190 238 213 11 13
42 46 68 75 26 29 53 61 59 72 11 21 14 23 -104 -84 -31 -29 -89 -77 -130
-107 -40 -31 -81 -62 -91 -70 -9 -8 -19 -14 -22 -14 -13 0 -43 -35 -38 -43 3
-6 1 -7 -5 -3 -6 3 -66 -28 -134 -69 -68 -42 -130 -80 -138 -85 -8 -5 -71 -42
-140 -83 -152 -91 -189 -112 -305 -172 -105 -55 -227 -129 -270 -165 -80 -66
-183 -180 -214 -238 -60 -114 -55 -187 25 -398 24 -64 48 -146 54 -182 28
-180 159 -501 280 -686 47 -72 50 -80 36 -95 -9 -10 -17 -31 -18 -47 -1 -16
-24 -66 -51 -112 -38 -63 -54 -81 -66 -76 -9 3 -34 8 -56 11 -34 4 -46 1 -74
-23 l-33 -27 -49 50 c-103 106 -190 111 -268 16 -17 -21 -31 -33 -31 -27 0 22
-74 96 -119 119 -42 21 -48 28 -63 82 -72 239 -85 312 -113 598 -29 309 -33
569 -25 1590 7 855 11 1057 29 1320 12 171 25 353 31 405 27 256 44 493 72
1035 14 275 15 346 2 415 -5 31 -6 81 -2 115 4 33 9 183 10 333 l3 272 -32 0
c-17 0 -34 -6 -37 -12 -3 -7 -3 12 0 41 5 44 13 62 39 90 l33 35 6 135 c4 75
11 219 16 321 8 158 7 186 -5 193 -20 11 -19 29 4 69 16 28 41 168 40 228 -1
19 9 61 15 67 2 2 31 -1 65 -8 51 -10 72 -9 138 6 149 33 192 53 368 168 175
115 461 239 640 277 197 43 579 66 819 51 259 -17 485 -64 636 -133 66 -29
192 -106 198 -121 7 -14 61 -37 90 -37 35 0 96 43 136 94 15 20 31 35 34 31 9
-9 43 104 49 166 5 52 3 58 -17 69 -13 7 -36 9 -57 5 -33 -6 -40 -2 -82 38
-128 122 -407 322 -561 401 -256 132 -636 269 -797 288 -106 12 -145 3 -168
-41 -9 -18 -30 -32 -67 -45 -104 -37 -148 -64 -154 -96 -7 -31 -5 -30 -317
-134 -141 -48 -358 -143 -479 -212 -138 -78 -248 -162 -360 -275 -54 -54 -98
-94 -98 -90 0 30 92 457 99 459 36 12 55 48 81 154 16 62 27 114 25 116 -2 2
3 18 10 37 8 18 11 36 7 39 -3 4 -1 10 5 14 6 4 21 41 32 82 12 41 29 92 36
113 8 20 12 37 9 37 -4 0 -1 6 5 14 6 8 13 27 14 44 1 16 5 28 8 26 3 -2 12
22 19 54 7 31 18 70 26 87 13 29 27 86 24 94 -1 2 2 7 7 10 4 3 21 42 35 86
15 44 41 114 57 155 63 159 149 386 156 410 4 14 32 88 62 164 30 77 52 145
49 153 -3 8 -2 12 3 9 5 -3 19 22 31 57 25 69 106 235 145 297 14 22 25 42 25
44 0 17 249 428 262 434 5 2 8 8 8 14 0 16 339 516 425 627 20 25 68 89 107
141 39 52 96 121 127 154 31 32 55 63 53 68 -1 5 1 7 6 4 12 -7 204 189 195
199 -5 4 -3 5 3 2 6 -4 40 23 74 59 87 90 97 97 332 228 292 162 404 200 837
285 238 47 262 48 323 16z m983 -233 c-3 -3 -11 0 -18 7 -9 10 -8 11 6 5 10
-3 15 -9 12 -12z m2195 -377 c193 -22 348 -40 950 -105 268 -30 373 -45 399
-59 13 -7 21 -9 17 -3 -3 6 22 8 67 5 89 -6 97 -8 97 -29 0 -16 -13 -16 -142
-10 -79 3 -183 11 -233 16 -49 6 -320 30 -602 55 l-511 46 -149 55 c-146 55
-181 71 -133 60 14 -3 122 -17 240 -31z m1213 -471 c444 -85 580 -110 827
-154 281 -49 661 -108 1010 -156 107 -14 202 -29 210 -32 8 -3 23 -4 32 -3 9
1 76 -5 150 -13 73 -8 216 -20 318 -26 261 -15 668 -39 780 -46 52 -4 103 -11
113 -16 24 -12 22 -55 -4 -68 -31 -17 -1458 -3 -1564 15 -44 8 -145 26 -225
40 -80 15 -162 29 -182 32 -21 3 -35 9 -32 14 3 5 -1 6 -9 3 -27 -10 -627 120
-635 138 -2 4 -10 4 -19 1 -11 -4 -14 -2 -9 5 4 8 2 10 -8 6 -13 -5 -226 49
-251 64 -5 3 -16 7 -25 8 -23 2 -192 56 -219 70 -14 7 -29 10 -34 7 -6 -3 -7
-1 -3 5 4 7 -10 16 -36 23 -24 7 -47 16 -53 20 -19 14 -136 40 -147 33 -7 -5
-8 -3 -3 6 6 10 4 12 -10 7 -9 -4 -23 -3 -29 2 -6 5 -38 19 -71 30 -33 12 -47
19 -32 16 16 -3 88 -17 160 -31z m3600 -645 c74 -25 241 -109 291 -147 21 -15
75 -87 125 -164 l89 -137 -97 48 c-54 27 -131 66 -172 89 -41 22 -85 47 -99
54 -65 33 -201 131 -234 168 -42 47 -48 86 -13 100 32 13 41 12 110 -11z
m-482 -290 c38 -19 203 -166 223 -199 8 -12 133 -151 219 -245 11 -11 73 -79
138 -150 117 -128 122 -132 265 -215 174 -100 187 -109 179 -133 -4 -9 -11
-17 -15 -17 -5 0 -52 20 -105 45 -52 24 -102 42 -109 39 -7 -3 -16 1 -19 9 -6
16 -77 61 -77 49 0 -4 27 -34 60 -67 33 -32 57 -61 55 -64 -3 -2 5 -15 17 -28
12 -13 16 -23 10 -23 -6 0 -76 62 -155 138 -99 94 -164 147 -207 170 -35 19
-59 28 -54 20 19 -24 268 -333 285 -353 106 -123 179 -219 179 -235 0 -24 -22
-36 -42 -23 -21 12 -131 133 -373 408 -121 137 -242 273 -269 302 l-48 52 21
44 c12 24 21 49 21 55 0 7 21 -4 46 -23 73 -56 94 -63 50 -17 -22 23 -43 39
-48 36 -5 -3 -7 -1 -6 4 2 5 -48 65 -109 133 -62 68 -124 141 -138 161 -42 61
-64 148 -39 148 3 0 23 -9 45 -21z m-547 -97 c3 -5 -1 -9 -9 -9 -8 0 -12 4 -9
9 3 4 7 8 9 8 2 0 6 -4 9 -8z m74 -84 c-2 -7 3 -12 10 -10 8 1 11 -2 7 -8 -5
-8 -11 -8 -21 1 -7 6 -11 15 -8 20 8 13 14 11 12 -3z m1355 -9 c23 -12 74 -54
113 -94 61 -61 73 -80 84 -126 25 -104 86 -214 307 -552 57 -87 103 -162 103
-167 0 -4 3 -10 8 -12 8 -3 182 -265 182 -274 0 -3 11 -20 24 -37 13 -18 35
-52 48 -77 14 -25 51 -86 82 -137 31 -51 56 -95 56 -98 0 -2 14 -27 31 -55 17
-28 28 -57 25 -66 -3 -8 -2 -13 3 -10 5 3 17 -11 27 -32 24 -50 95 -223 99
-242 2 -8 15 -45 29 -83 14 -37 26 -69 26 -72 0 -3 2 -10 5 -17 26 -80 102
-382 109 -436 2 -15 6 -34 9 -42 20 -53 31 -164 28 -285 l-2 -70 -25 70 c-13
39 -29 85 -35 104 -6 18 -29 72 -52 120 -23 47 -41 91 -42 96 0 6 -3 12 -6 15
-10 9 -140 263 -142 279 -1 9 -6 22 -10 28 -4 7 -7 43 -5 80 1 49 -3 82 -17
118 -11 28 -22 52 -25 55 -8 8 -64 122 -66 134 -1 6 -20 44 -43 85 -23 41 -41
77 -41 82 0 4 -9 23 -19 41 -11 18 -29 74 -41 123 -21 83 -74 211 -107 252 -7
10 -44 59 -81 109 -37 50 -92 124 -123 165 -71 93 -120 171 -147 231 -14 32
-68 96 -175 207 -194 200 -314 366 -347 478 -32 108 46 166 153 112z m-551
-581 c40 -45 132 -140 205 -211 133 -130 186 -204 178 -249 -3 -12 9 -38 30
-66 50 -64 44 -111 -8 -64 -11 9 22 -35 73 -98 119 -149 210 -285 210 -315 0
-34 -26 -39 -47 -9 -10 14 -26 35 -37 47 l-18 22 14 -25 c58 -100 90 -162 85
-166 -7 -7 -85 96 -164 218 -50 78 -86 121 -138 164 -92 77 -136 124 -128 137
4 6 1 7 -6 3 -13 -9 -54 22 -46 34 3 4 -1 10 -8 13 -16 6 -63 74 -72 105 -10
35 16 27 50 -16 16 -20 30 -39 29 -42 0 -3 38 -41 85 -85 l85 -80 -110 123
c-60 68 -142 160 -182 205 -39 45 -75 92 -78 104 -3 13 -9 21 -14 18 -7 -5
-35 44 -32 58 1 4 -2 7 -7 7 -5 0 -11 9 -14 20 -4 16 7 10 44 -22 28 -24 62
-49 77 -57 15 -7 51 -36 81 -65 30 -28 48 -41 42 -29 -6 13 -40 46 -74 74 -64
53 -83 76 -73 86 3 4 1 12 -5 20 -9 9 -15 10 -25 3 -9 -9 -11 -7 -8 7 3 11 -8
37 -28 63 -54 72 -68 98 -68 125 0 43 25 29 102 -57z m28 -152 c0 -2 -7 -7
-16 -10 -8 -3 -12 -2 -9 4 6 10 25 14 25 6z m258 -605 c70 -85 200 -238 290
-340 89 -102 162 -189 162 -193 0 -5 -7 -8 -15 -8 -8 0 -12 -6 -9 -14 9 -23
-16 -29 -38 -9 -12 10 -39 41 -62 69 -23 28 -100 122 -173 210 -218 264 -273
336 -309 406 -68 135 -34 108 154 -121z m214 -372 c205 -256 317 -409 311
-424 -7 -21 -23 -19 -51 8 -14 12 3 -13 36 -57 34 -43 62 -84 62 -90 0 -10
-58 47 -125 124 -89 103 -268 300 -272 300 -3 0 11 -21 30 -47 153 -213 437
-639 437 -658 0 -39 -36 1 -170 191 -80 113 -176 249 -214 302 -39 53 -80 124
-92 157 -12 33 -34 90 -48 128 -14 37 -24 67 -22 67 3 0 255 -280 320 -355 14
-16 25 -25 26 -20 0 6 -93 123 -206 260 -153 186 -215 270 -245 330 l-39 80
73 -76 c40 -42 125 -141 189 -220z m-12078 -61 c-5 -7 -9 -19 -10 -28 -1 -14
-18 -79 -80 -305 -28 -101 -53 -165 -66 -165 -4 0 -7 -3 -6 -7 1 -5 -5 -19
-14 -33 -39 -61 -139 -244 -144 -266 -3 -13 -10 -24 -14 -24 -4 0 6 46 21 103
34 120 63 266 79 391 6 49 16 99 22 110 23 44 194 236 211 236 5 0 5 -6 1 -12z
m1823 -379 c55 -8 76 -7 92 2 24 16 63 7 260 -57 183 -60 351 -151 609 -331
l95 -66 -28 -14 c-39 -21 -84 -9 -161 42 -37 25 -68 45 -71 45 -2 0 -28 18
-58 40 -30 22 -58 40 -62 40 -5 0 -31 15 -59 34 -43 29 -56 33 -95 29 -49 -5
-106 8 -253 60 -83 29 -104 33 -129 24 -41 -14 -230 -2 -347 23 -112 23 -140
25 -140 6 0 -15 -50 -36 -165 -67 -44 -12 -93 -25 -110 -30 -16 -4 -55 -15
-85 -23 -95 -26 -279 -85 -301 -96 -34 -19 -33 -4 3 23 18 13 113 72 210 131
141 85 194 111 255 126 42 11 88 20 102 20 15 0 44 9 65 21 64 34 212 41 373
18z m10347 -94 c43 -52 83 -92 89 -88 5 3 7 1 4 -4 -4 -6 35 -63 86 -126 50
-63 124 -157 164 -208 39 -52 111 -139 158 -194 101 -116 125 -156 105 -180
-18 -22 -22 -20 -66 33 -22 27 -96 109 -165 183 -229 244 -356 384 -366 404
-25 47 -98 275 -89 275 1 0 37 -43 80 -95z m-12403 -412 c-12 -20 -14 -14 -5
12 4 9 9 14 11 11 3 -2 0 -13 -6 -23z m-55 -111 c-14 -15 -15 -13 -3 17 8 23
13 28 15 16 2 -10 -3 -25 -12 -33z m-26 -99 c-26 -70 -84 -186 -110 -223 -40
-56 -41 -17 -1 65 21 44 51 108 66 143 15 34 32 62 36 62 5 0 9 8 9 18 1 15 2
15 10 1 6 -11 3 -32 -10 -66z m12688 -418 c22 -60 61 -159 87 -220 25 -60 55
-135 66 -165 28 -76 90 -293 85 -297 -5 -5 -66 163 -66 181 0 7 -11 35 -25 62
-14 27 -25 54 -25 59 0 6 -18 57 -41 115 -23 58 -43 115 -46 128 -3 12 -10 22
-15 22 -6 0 -8 7 -4 15 3 8 2 15 -3 15 -5 0 -8 6 -8 13 2 17 -25 97 -32 97 -4
0 -7 10 -8 22 -1 11 -8 25 -15 29 -7 5 -9 9 -5 9 5 0 5 6 0 13 -4 6 -8 17 -9
23 -1 6 -5 22 -8 35 -14 52 33 -51 72 -156z m-12478 -639 c0 -8 5 -16 12 -18
15 -5 1 -28 -18 -28 -9 0 -14 11 -14 30 0 17 5 30 10 30 6 0 10 -6 10 -14z
m12727 -78 c-3 -8 -6 -5 -6 6 -1 11 2 17 5 13 3 -3 4 -12 1 -19z m33 -98 c0
-5 -2 -10 -4 -10 -3 0 -8 5 -11 10 -3 6 -1 10 4 10 6 0 11 -4 11 -10z m-37
-15 c-3 -9 -8 -14 -10 -11 -3 3 -2 9 2 15 9 16 15 13 8 -4z m127 -385 c7 -33
10 -63 8 -66 -7 -6 -58 94 -58 113 0 7 8 13 19 13 14 0 21 -13 31 -60z m-70
-232 c0 -16 -3 -19 -11 -11 -6 6 -8 16 -5 22 11 17 16 13 16 -11z m322 -152
c17 -34 41 -74 53 -91 24 -32 92 -144 220 -365 135 -231 155 -271 155 -304 -1
-30 -1 -30 -16 -11 -12 17 -139 226 -313 517 -25 43 -76 126 -112 185 -44 72
-69 123 -73 153 -4 25 -9 56 -12 70 -7 29 52 -63 98 -154z m1139 -14 c56 -36
156 -135 198 -195 38 -56 71 -176 71 -259 0 -58 -36 -222 -86 -387 -57 -189
-93 -451 -107 -776 -8 -181 14 -1422 28 -1590 25 -314 26 -335 16 -335 -18 0
-39 41 -76 150 -20 57 -46 122 -57 144 -11 21 -31 82 -43 135 -13 53 -31 112
-39 132 -8 20 -36 106 -62 190 l-46 154 17 176 c9 97 13 194 10 215 -8 44 -82
253 -97 272 -6 6 -8 12 -5 12 3 0 -13 37 -37 83 -42 80 -43 86 -55 225 -14
172 -27 238 -52 263 -16 16 -19 34 -19 122 0 56 3 145 6 198 6 88 9 96 25 92
32 -9 48 16 84 131 60 191 156 364 242 435 30 24 39 28 45 17 19 -33 49 -193
47 -245 -3 -51 -1 -56 18 -59 36 -5 47 59 33 194 -23 229 -43 269 -133 268
-190 -3 -397 -277 -397 -523 l0 -46 -44 3 -45 4 -5 51 c-3 29 -12 127 -19 220
-12 156 -11 167 4 167 26 0 55 42 111 160 87 184 150 225 349 229 67 1 80 -2
120 -27z m-1109 -159 c25 -28 73 -130 147 -311 38 -92 84 -193 103 -226 59
-104 97 -180 92 -186 -3 -3 -12 4 -20 14 -19 27 -18 21 16 -72 35 -96 36 -113
11 -136 -22 -20 -51 -11 -51 16 0 11 -11 34 -24 51 -13 18 -65 113 -116 212
-52 99 -106 200 -120 225 -24 41 -28 61 -34 174 -7 115 -19 188 -41 239 -5 12
-3 17 7 17 8 0 22 -8 30 -17z m206 -823 c38 -59 84 -122 104 -141 35 -35 41
-63 10 -52 -9 4 -27 18 -39 32 -14 16 6 -34 51 -125 164 -332 227 -468 222
-480 -7 -19 -43 -17 -50 2 -4 9 -8 15 -11 13 -2 -3 14 -51 35 -108 22 -57 47
-135 56 -173 19 -79 13 -101 -28 -106 -24 -3 -27 2 -47 66 -18 61 -137 345
-216 518 -14 30 -25 57 -25 59 0 2 -33 82 -74 177 -94 220 -103 251 -86 282
11 22 7 34 -49 138 l-62 113 6 73 7 72 63 -127 c35 -71 95 -175 133 -233z
m-13471 -422 c-3 -8 -6 -5 -6 6 -1 11 2 17 5 13 3 -3 4 -12 1 -19z m3086 -943
c24 -49 74 -134 110 -188 37 -54 72 -108 78 -120 11 -21 11 -21 -7 -5 -18 15
-25 15 -112 -7 -51 -12 -98 -28 -106 -34 -27 -23 -166 -15 -174 9 -2 5 -9 10
-16 10 -7 0 -21 9 -32 21 -17 18 -19 37 -18 143 0 129 10 168 55 221 33 39 92
95 100 95 3 0 19 12 35 27 l29 27 8 -55 c4 -30 27 -94 50 -144z m11014 43 c-3
-8 -6 -5 -6 6 -1 11 2 17 5 13 3 -3 4 -12 1 -19z m40 -153 l2 -40 -13 45 c-7
25 -16 59 -19 75 -7 29 -7 29 11 -5 10 -19 18 -53 19 -75z m-11516 72 c-10 -9
-11 -8 -5 6 3 10 9 15 12 12 3 -3 0 -11 -7 -18z m11194 -349 c16 -29 45 -80
65 -113 28 -46 188 -332 301 -538 5 -9 14 -63 19 -120 6 -56 13 -113 16 -127
5 -24 5 -24 -10 -5 -8 11 -16 25 -16 30 0 12 -57 124 -134 265 -120 221 -248
474 -271 534 -45 120 -24 173 30 74z m-7761 -67 c-2 -3 -12 3 -22 13 -16 17
-16 18 5 5 12 -7 20 -15 17 -18z m-3070 -92 c-3 -5 -11 -9 -17 -8 -8 0 -8 2 1
6 10 4 10 8 0 21 -12 15 -11 16 4 3 10 -7 15 -17 12 -22z m2381 -8 c-6 -6 -53
-24 -105 -42 -52 -17 -167 -69 -255 -114 -182 -95 -416 -191 -555 -229 -239
-64 -338 -48 -795 129 -221 85 -308 115 -429 144 -45 11 -90 22 -101 25 -11 3
36 3 105 0 151 -5 160 -6 160 -16 0 -4 7 -8 16 -8 24 0 117 -43 259 -118 28
-15 53 -28 57 -30 4 -1 28 -11 53 -22 25 -11 85 -29 133 -41 74 -18 108 -20
227 -16 119 4 150 8 206 30 84 33 154 71 266 144 48 32 102 64 118 71 32 15
150 54 175 58 8 1 42 7 75 14 33 6 132 15 220 19 88 4 164 9 170 9 6 1 6 -1 0
-7z m2819 -87 l46 -7 0 -41 c0 -23 6 -91 14 -151 24 -183 25 -203 9 -217 -19
-15 -32 4 -33 47 -1 17 -10 71 -20 120 l-19 90 7 -110 c4 -60 7 -153 7 -205 0
-82 -2 -95 -17 -98 -15 -3 -18 4 -18 50 0 29 -13 157 -29 283 -16 127 -27 233
-24 238 5 9 17 9 77 1z m-416 -31 l-3 -28 -145 -12 c-424 -35 -535 -43 -587
-42 -50 1 -41 3 62 19 547 81 569 84 648 88 25 2 28 -1 25 -25z m573 -66 c-6
-8 -7 -18 -3 -22 4 -5 1 -5 -6 -1 -10 6 -10 11 -1 22 6 8 14 14 16 14 3 0 0
-6 -6 -13z m-1388 -24 c-13 -2 -35 -2 -50 0 -16 2 -5 4 22 4 28 0 40 -2 28 -4z
m1597 -163 c0 -5 7 -10 15 -10 8 0 15 -5 15 -12 0 -6 2 -9 6 -6 5 6 124 -39
214 -80 25 -11 63 -27 85 -35 22 -9 87 -35 145 -58 58 -23 161 -61 228 -85 68
-24 129 -47 135 -51 7 -4 17 -8 22 -8 53 -3 212 -76 222 -102 3 -7 9 -10 14
-7 5 2 32 -10 61 -29 29 -18 61 -36 71 -40 11 -4 15 -12 11 -18 -4 -8 -3 -9 4
-5 19 11 114 -56 108 -76 -2 -10 0 -20 4 -23 4 -3 6 -14 3 -26 -4 -14 -10 -18
-22 -13 -9 4 -63 23 -121 42 -193 63 -304 104 -399 148 -51 24 -95 44 -98 44
-18 0 -72 34 -66 43 4 6 1 7 -7 2 -13 -8 -108 36 -144 68 -11 9 -24 17 -28 17
-5 0 -14 5 -21 10 -11 10 -91 61 -177 115 -83 52 -141 85 -149 85 -5 0 -11 4
-13 8 -1 4 -38 31 -81 60 -52 34 -72 52 -58 52 12 0 21 -4 21 -10z m-6081
-101 c-41 -28 -96 -64 -124 -79 -76 -41 -128 -72 -145 -86 -23 -19 -70 -35
-70 -24 0 6 5 10 11 10 11 0 152 82 227 132 23 15 45 28 48 28 2 0 28 16 57
35 28 19 56 35 61 35 5 0 -24 -23 -65 -51z m6542 28 c-6 -8 -7 -18 -3 -22 4
-5 1 -5 -6 -1 -10 6 -10 11 -1 22 6 8 14 14 16 14 3 0 0 -6 -6 -13z m4990
-270 c35 -60 169 -329 169 -340 0 -3 23 -54 51 -114 44 -92 53 -120 60 -193 8
-87 6 -110 -5 -65 -4 14 -36 87 -71 162 -36 74 -65 137 -65 138 0 2 -23 51
-50 110 -28 58 -47 111 -44 117 4 6 3 8 -3 5 -14 -9 -86 140 -77 155 4 7 3 8
-4 4 -17 -10 -45 63 -31 80 17 20 31 8 70 -59z m-14187 48 c-4 -8 -8 -15 -10
-15 -2 0 -4 7 -4 15 0 8 4 15 10 15 5 0 7 -7 4 -15z m2281 -30 c-31 -25 -45
-31 -45 -17 0 8 50 40 65 41 6 1 -3 -10 -20 -24z m-63 -37 c-7 -7 -12 -8 -12
-2 0 14 12 26 19 19 2 -3 -1 -11 -7 -17z m-22 -6 c0 -4 -37 -27 -82 -51 -46
-24 -85 -47 -88 -51 -10 -12 -102 -62 -106 -57 -5 5 52 41 71 46 6 1 19 10 30
20 11 10 34 25 50 33 75 38 95 50 100 59 7 11 25 12 25 1z m-2022 -170 c-6
-27 -23 -16 -26 18 -2 33 -2 34 13 15 9 -11 14 -26 13 -33z m1724 -5 c-6 -7
-17 -108 -24 -225 -6 -117 -15 -217 -18 -223 -4 -5 -14 -7 -23 -3 -15 5 -17
28 -17 205 0 197 0 200 -20 189 -42 -22 -18 0 37 34 59 37 84 46 65 23z m4785
-48 c6 -13 21 -76 33 -139 66 -357 89 -494 84 -501 -3 -5 -13 -9 -22 -9 -14 0
-24 33 -56 188 -21 103 -52 249 -68 325 -24 111 -28 140 -17 153 16 19 31 14
46 -17z m-5457 -33 c0 -2 -8 -10 -17 -17 -16 -13 -17 -12 -4 4 13 16 21 21 21
13z m515 -53 c-10 -69 -25 -89 -24 -33 1 56 7 80 21 80 7 0 8 -17 3 -47z
m8412 12 c0 -8 -4 -12 -9 -9 -5 3 -6 10 -3 15 9 13 12 11 12 -6z m-8482 -97
c-9 -128 -25 -209 -42 -215 -22 -9 -31 14 -23 56 4 20 11 77 14 126 6 76 10
93 29 107 12 10 24 18 26 18 2 0 0 -42 -4 -92z m12075 77 c0 -2 16 -81 36
-176 26 -124 33 -174 25 -182 -8 -8 -11 2 -11 38 0 67 -7 53 -14 -30 -8 -76
-33 -255 -42 -291 -5 -20 -9 -21 -39 -11 -42 13 -75 4 -116 -30 l-32 -28 6 25
c3 14 11 54 17 90 6 36 21 110 34 165 14 55 24 107 24 115 1 24 60 242 77 283
8 20 20 37 25 37 6 0 10 -2 10 -5z m-3497 -71 c-6 -17 -16 -19 -10 -1 2 6 -3
21 -12 32 -16 20 -16 20 6 2 12 -11 19 -25 16 -33z m-9174 -21 c-71 -79 -131
-165 -165 -238 -20 -41 -37 -75 -38 -75 -3 0 -9 126 -7 165 1 13 21 34 52 55
85 58 93 64 134 95 22 17 42 34 44 38 1 5 5 6 8 3 3 -3 -9 -22 -28 -43z m9268
-50 c11 -77 14 -133 6 -133 -29 0 -39 26 -35 99 3 53 7 70 15 62 6 -6 12 -19
14 -28z m-1102 -20 c3 -20 11 -87 15 -147 5 -61 14 -159 20 -219 13 -117 12
-130 -8 -118 -14 8 -62 371 -62 467 0 75 22 86 35 17z m-2590 27 c6 -10 45
-360 45 -407 0 -35 -27 -27 -33 10 -31 174 -58 379 -54 391 7 18 33 21 42 6z
m2484 -42 c10 -51 32 -223 30 -243 -2 -25 -59 224 -59 258 0 54 17 45 29 -15z
m5317 -274 c30 -22 31 -26 37 -121 3 -54 16 -206 27 -338 20 -221 21 -256 10
-450 -7 -115 -14 -498 -15 -850 -2 -407 -7 -675 -14 -735 -16 -133 -41 -292
-48 -310 -3 -8 -5 -18 -5 -23 3 -13 -38 -206 -74 -344 -39 -151 -53 -189 -129
-349 -30 -64 -55 -120 -55 -126 0 -5 -4 -6 -10 -3 -5 3 -8 0 -5 -7 5 -14 -39
-161 -46 -154 -2 2 -4 -8 -5 -23 0 -14 -21 -56 -46 -92 -30 -44 -51 -89 -62
-135 -10 -38 -33 -100 -51 -139 -19 -38 -49 -103 -66 -142 -18 -40 -35 -73
-40 -73 -4 0 -11 -10 -14 -22 -4 -13 -16 -32 -26 -43 -10 -11 -19 -24 -21 -30
-2 -5 -6 -9 -10 -8 -4 2 -4 -5 -1 -14 5 -12 3 -14 -7 -8 -9 5 -11 4 -6 -3 4
-7 -4 -27 -17 -44 -14 -18 -37 -55 -52 -82 -15 -28 -36 -59 -46 -70 -11 -11
-19 -24 -19 -28 0 -5 -17 -35 -38 -66 -21 -32 -41 -66 -45 -75 -4 -10 -11 -15
-17 -12 -6 4 -7 -1 -3 -11 4 -12 3 -15 -5 -10 -8 5 -10 2 -6 -8 3 -9 2 -16 -3
-16 -5 0 -21 -24 -37 -52 -15 -29 -40 -73 -56 -98 -17 -25 -37 -59 -46 -77
-10 -18 -22 -29 -28 -26 -6 3 -8 3 -4 -2 12 -13 -90 -186 -159 -271 -18 -23
-33 -45 -33 -50 0 -5 -12 -22 -28 -39 -15 -16 -40 -48 -57 -70 -29 -39 -93
-117 -183 -223 -25 -29 -54 -65 -65 -80 -74 -98 -131 -161 -140 -155 -5 3 -7
1 -4 -4 9 -14 -32 -65 -44 -57 -5 3 -8 0 -7 -8 2 -7 -2 -12 -9 -11 -7 2 -10
-3 -7 -11 5 -13 -67 -81 -93 -88 -16 -4 -108 -86 -225 -200 -49 -49 -92 -88
-96 -88 -17 0 -67 723 -56 805 16 120 70 123 128 7 l34 -67 6 45 c3 25 8 101
12 170 3 69 9 129 12 135 3 5 5 23 4 40 -4 57 26 209 45 222 9 7 19 13 22 13
17 -1 41 -33 79 -100 41 -74 94 -140 113 -140 34 0 60 230 94 840 40 699 72
991 206 1865 52 343 69 410 111 439 55 39 96 4 137 -119 16 -49 73 -263 125
-475 53 -212 127 -508 166 -659 38 -151 72 -286 74 -300 2 -14 5 -27 5 -29 1
-1 12 5 26 14 14 9 31 14 39 11 8 -3 35 -36 60 -74 62 -93 83 -115 103 -111
21 4 21 6 9 334 -9 255 -6 276 35 289 32 10 66 -28 113 -125 41 -84 41 -85 44
-48 2 20 -8 137 -22 260 -29 252 -40 377 -61 728 -24 392 -21 449 26 478 15
10 24 10 42 1 32 -18 39 -27 72 -98 17 -36 43 -82 58 -103 15 -21 25 -44 21
-50 -4 -7 -3 -8 4 -4 12 7 35 -28 24 -38 -3 -4 2 -4 12 0 17 7 18 18 10 198
-15 317 -7 603 20 764 5 36 40 77 68 80 14 2 34 -6 49 -20 34 -32 72 -95 64
-108 -4 -6 -2 -9 4 -8 6 2 39 -41 74 -95 37 -56 67 -92 70 -84 3 7 -3 67 -13
133 -10 65 -30 196 -44 289 -14 94 -27 197 -30 230 -2 33 -6 67 -9 75 -10 30
-76 781 -76 865 1 47 13 81 40 106 33 31 56 29 105 -7z m-6292 -221 c28 -171
-37 -468 -140 -644 l-44 -76 -149 -61 c-302 -126 -386 -146 -981 -232 -733
-105 -914 -132 -1020 -150 -546 -92 -827 -124 -1085 -123 -359 1 -655 43 -913
130 l-83 28 -35 80 c-20 44 -52 115 -71 157 -39 89 -123 444 -123 523 l0 51
245 17 c236 18 407 38 600 72 83 14 175 33 420 86 50 10 121 19 159 19 56 0
78 5 112 25 24 14 47 32 52 41 7 13 14 11 53 -10 24 -14 85 -37 134 -51 88
-26 94 -27 305 -22 214 6 377 14 835 42 132 9 332 20 445 25 113 6 250 15 305
20 55 5 240 21 410 35 252 21 524 47 556 54 4 0 9 -16 13 -36z m1100 -129 c10
-25 7 -31 -13 -37 -18 -4 -19 -7 -5 -46 16 -46 13 -141 -7 -213 -14 -54 -6
-160 21 -256 11 -41 65 -186 120 -324 93 -233 170 -458 170 -498 0 -11 -13
-21 -37 -28 -65 -20 -129 -67 -160 -119 -28 -47 -28 -50 -27 -208 0 -106 8
-214 22 -320 31 -225 31 -217 15 -211 -7 3 -82 25 -166 48 -107 29 -172 42
-220 42 -66 1 -70 0 -102 -35 -22 -25 -35 -51 -39 -80 -16 -102 -16 -101 -44
-94 -15 3 -43 17 -62 30 -19 14 -77 43 -128 65 -51 22 -125 58 -165 79 -124
68 -196 73 -227 17 l-12 -24 -72 28 c-39 16 -150 58 -246 93 -260 95 -482 193
-596 261 l-102 60 137 79 c327 188 499 290 544 323 48 35 61 67 32 78 -9 3
-132 -52 -293 -133 -317 -158 -392 -191 -662 -289 -328 -119 -520 -166 -836
-201 -364 -42 -1093 -53 -1614 -26 -318 17 -398 26 -550 60 -162 37 -383 75
-434 75 -36 0 -52 -6 -71 -25 -14 -13 -25 -28 -25 -33 0 -29 89 -77 223 -121
l67 -23 -144 -151 c-134 -142 -185 -198 -246 -274 -20 -25 -61 -45 -205 -101
-99 -39 -205 -78 -235 -86 -70 -20 -186 -35 -227 -29 l-32 5 16 32 c9 17 38
63 66 103 39 56 51 82 54 120 9 99 -52 143 -222 163 -124 14 -192 25 -227 39
l-28 10 34 63 c49 91 69 161 62 212 -10 63 -55 128 -112 161 -73 42 -84 54
-84 94 0 65 43 134 153 248 156 163 166 192 92 291 -44 60 -44 61 -29 92 10
20 14 45 10 68 -3 20 -7 55 -9 77 -3 34 -47 150 -125 329 -9 22 -29 56 -44 77
-48 67 -31 70 35 7 167 -161 366 -295 692 -463 83 -43 237 -122 343 -177 312
-161 555 -254 770 -293 418 -76 864 -71 1376 15 66 12 180 29 251 40 72 11
201 31 287 44 86 14 228 34 315 46 488 64 1126 167 1273 205 148 39 434 186
677 348 109 73 223 153 253 177 30 25 91 71 135 102 44 32 119 86 167 120 47
35 126 89 175 120 48 31 104 72 123 91 19 18 47 37 62 40 15 4 40 18 55 32 33
29 49 31 57 9z m4453 -22 c17 -11 -33 -90 -72 -116 -15 -10 -26 -14 -24 -9 20
44 71 133 77 133 4 0 13 -4 19 -8z m-2899 -316 c23 -43 51 -90 64 -104 29 -31
94 -61 134 -62 37 0 118 40 159 78 48 44 91 72 114 72 11 0 54 -11 95 -25 124
-42 167 -34 306 55 51 33 97 60 101 60 3 0 42 -24 85 -53 44 -30 94 -59 113
-65 75 -26 166 -7 279 58 105 61 107 61 246 -22 102 -62 131 -69 246 -62 80 5
104 3 154 -15 33 -12 70 -21 83 -21 12 0 23 -4 23 -8 0 -21 -249 -41 -503 -41
-240 0 -263 2 -344 24 -79 22 -94 23 -163 14 -41 -6 -113 -8 -160 -4 -74 5
-97 3 -172 -19 -48 -14 -127 -46 -177 -72 -74 -39 -103 -48 -163 -54 -40 -4
-100 -17 -132 -29 -33 -11 -80 -21 -104 -21 -53 0 -123 31 -152 67 -16 21 -25
24 -51 18 -57 -13 -114 3 -162 45 l-44 39 -41 -19 c-57 -28 -104 -26 -141 6
-39 33 -39 52 2 97 17 20 75 88 127 152 l95 116 21 -63 c12 -35 40 -99 62
-142z m-1490 79 c-3 -3 -9 2 -12 12 -6 14 -5 15 5 6 7 -7 10 -15 7 -18z m4045
10 c20 -8 48 -15 62 -15 21 0 24 -3 14 -17 -22 -36 -133 -101 -200 -117 -36
-8 -75 -18 -85 -22 -10 -4 -3 6 16 21 19 16 62 59 95 97 32 37 60 68 61 68 1
0 18 -7 37 -15z m-13255 -545 c9 -19 22 -43 30 -52 18 -21 12 -22 -39 -6 -42
12 -43 15 -32 94 6 44 7 46 16 24 6 -14 17 -41 25 -60z m877 -667 c-4 -40 -10
-73 -15 -73 -4 0 -10 80 -12 178 -5 152 -3 181 11 202 15 24 16 19 19 -105 2
-71 0 -163 -3 -202z m-956 107 c-11 -58 -35 -177 -53 -265 -18 -88 -30 -164
-26 -170 4 -5 18 -82 30 -170 12 -88 30 -202 41 -253 10 -51 18 -96 17 -100
-1 -4 1 -14 5 -22 3 -8 18 -78 32 -155 15 -77 28 -147 30 -155 2 -8 4 -18 4
-22 1 -3 10 -4 20 -1 18 5 25 -6 37 -52 2 -5 10 -35 18 -65 36 -125 96 -478
120 -705 3 -27 10 -79 16 -115 5 -36 10 -72 10 -80 0 -22 -52 121 -54 147 0
12 -3 19 -5 17 -3 -2 -16 17 -31 43 -15 27 -41 71 -59 100 -27 42 -38 79 -62
200 -16 81 -35 195 -44 253 -22 159 -42 254 -74 354 -22 66 -33 127 -41 221
-6 72 -15 164 -21 205 -5 41 -9 120 -9 175 2 166 1 182 -10 165 -14 -22 -13
-10 19 155 16 83 36 197 46 255 12 75 23 111 38 127 11 13 22 22 23 20 1 -1
-6 -49 -17 -107z m-150 -457 l-1 -58 -17 50 c-18 51 -17 55 17 64 1 1 2 -25 1
-56z m4874 -427 c22 -2 22 -4 10 -49 -5 -17 -4 -17 28 -1 19 10 42 21 52 26
34 17 70 -9 71 -51 2 -26 24 -22 46 9 12 16 27 30 35 30 20 0 45 -29 45 -51 0
-28 -53 -79 -82 -79 -15 0 -39 -15 -63 -40 -21 -22 -41 -38 -43 -35 -2 2 3 11
12 20 9 9 16 21 16 27 0 19 -24 -9 -50 -59 -14 -26 -28 -50 -33 -51 -4 -2 -5
-8 -1 -13 3 -5 0 -9 -5 -9 -6 0 -11 -4 -11 -9 0 -16 -83 -131 -95 -131 -17 0
-35 22 -35 42 0 9 22 65 49 123 27 58 48 105 46 105 -3 0 -42 -30 -87 -66 -98
-79 -127 -98 -134 -92 -8 9 8 38 21 38 7 0 16 7 19 16 3 9 11 12 18 8 7 -4 10
-4 6 1 -10 11 11 47 23 40 5 -4 8 -3 7 2 -2 4 18 28 45 52 36 34 45 47 36 57
-6 7 -7 19 -2 26 10 17 33 80 33 93 0 6 -10 -6 -23 -26 -12 -20 -40 -62 -62
-94 -22 -32 -44 -65 -50 -74 -5 -9 -16 -20 -22 -24 -7 -4 -13 -15 -13 -22 0
-8 -4 -15 -10 -15 -5 0 -10 -5 -10 -11 0 -6 -10 -24 -22 -39 -13 -15 -32 -40
-43 -56 -28 -40 -106 -124 -115 -124 -16 0 -20 34 -9 67 6 19 31 67 56 106 25
40 53 85 62 101 21 38 162 229 176 238 5 4 27 5 48 1 21 -3 48 -6 60 -7z
m5860 -409 c4 -43 21 -128 37 -190 32 -125 191 -632 270 -860 90 -261 93 -282
85 -571 -9 -306 -13 -293 123 -426 128 -124 233 -257 281 -352 90 -178 80
-358 -42 -770 l-26 -88 33 -32 c18 -18 49 -54 68 -79 73 -97 116 -143 196
-210 45 -38 82 -65 82 -59 0 16 50 60 68 60 10 0 41 -18 71 -40 55 -41 78 -47
127 -30 21 7 42 6 73 -3 l44 -14 -48 -33 c-26 -18 -87 -73 -134 -121 -78 -80
-115 -110 -95 -77 4 7 3 8 -5 4 -6 -4 -9 -11 -6 -16 3 -4 -7 -23 -22 -42 -45
-54 -245 -252 -292 -289 -24 -19 -58 -45 -75 -59 -17 -14 -43 -34 -58 -43 -15
-9 -50 -36 -77 -60 -110 -95 -195 -162 -203 -160 -4 2 -5 -4 -2 -12 4 -8 2
-15 -3 -15 -5 0 -31 -21 -56 -46 -28 -27 -51 -43 -58 -38 -7 4 -9 3 -6 -3 10
-16 -96 -92 -213 -154 -77 -41 -353 -219 -489 -317 -14 -9 -31 -16 -38 -15 -8
0 -12 -2 -9 -5 9 -9 -95 -63 -107 -55 -6 4 -7 1 -2 -7 6 -10 4 -12 -9 -7 -9 4
-15 3 -12 -2 6 -9 -88 -51 -224 -99 -47 -17 -102 -38 -123 -46 -21 -9 -43 -14
-49 -10 -6 4 -8 3 -5 -3 7 -11 -131 -79 -152 -74 -7 1 -10 -2 -6 -8 3 -6 2
-11 -2 -11 -5 0 -36 -16 -69 -36 -32 -21 -77 -47 -99 -59 -22 -12 -56 -31 -76
-43 -77 -43 -190 -87 -324 -125 -77 -21 -148 -39 -157 -40 -10 -1 -18 -6 -18
-11 0 -5 -3 -7 -6 -4 -3 4 -27 -3 -52 -14 -73 -31 -200 -88 -272 -121 -36 -16
-69 -30 -75 -32 -5 -1 -27 -10 -48 -19 -57 -25 -151 -44 -262 -51 -126 -9
-215 -27 -309 -63 -55 -22 -79 -26 -92 -19 -16 8 -17 7 -7 -4 11 -11 -5 -22
-85 -61 -126 -62 -220 -100 -231 -93 -5 3 -11 1 -13 -4 -3 -10 -91 -28 -298
-61 -96 -15 -177 -36 -280 -72 -83 -29 -169 -53 -202 -55 -118 -9 -716 40
-729 60 -4 5 -12 7 -18 3 -10 -7 -177 18 -211 31 -8 3 -22 7 -30 8 -77 10
-280 62 -296 76 -6 5 -13 7 -16 4 -5 -5 -261 70 -289 86 -11 5 -19 7 -19 5 0
-5 -197 60 -272 89 -21 8 -55 21 -75 29 -90 34 -122 50 -117 58 3 4 -1 5 -8 3
-15 -6 -322 125 -338 144 -3 3 -12 7 -20 9 -33 8 -199 100 -192 107 4 5 2 5
-5 1 -7 -4 -29 4 -50 17 -21 13 -46 26 -56 30 -10 4 -15 11 -12 17 3 6 -1 7
-10 4 -8 -4 -21 -2 -28 3 -6 6 -37 24 -67 40 -127 70 -436 253 -517 306 -17
12 -29 25 -27 29 3 4 -3 5 -12 1 -13 -5 -15 -3 -9 7 5 9 4 11 -3 6 -15 -9 -73
34 -65 47 3 6 1 7 -5 3 -16 -9 -73 25 -65 38 3 6 3 8 -2 4 -12 -11 -67 21 -59
34 4 6 3 8 -3 5 -12 -8 -65 27 -56 37 5 4 3 6 -3 4 -10 -3 -107 60 -188 122
-18 14 -44 34 -59 44 -14 11 -24 23 -21 28 3 4 -1 6 -8 3 -7 -3 -71 50 -142
119 -94 89 -128 128 -123 139 3 9 2 16 -3 14 -12 -3 -131 169 -122 178 4 5 2
5 -5 1 -7 -4 -18 4 -27 21 -8 15 -33 48 -55 72 -22 24 -38 48 -35 53 3 5 2 7
-3 6 -4 -1 -33 21 -63 50 -30 28 -59 52 -65 52 -5 0 -3 5 5 11 12 8 11 9 -6 5
-26 -8 -40 8 -93 107 -22 42 -48 88 -56 100 -8 13 -12 27 -8 32 5 4 4 6 -2 3
-5 -4 -29 22 -53 56 -33 49 -52 94 -87 211 -49 168 -55 170 -24 11 11 -59 19
-110 17 -112 -3 -2 -30 23 -62 56 -38 39 -59 69 -61 87 -1 16 -7 39 -12 53 -5
14 -27 96 -48 183 -22 86 -44 157 -49 157 -5 0 -6 -59 -2 -142 l6 -142 -26 35
c-68 92 -62 24 -70 774 -5 498 -3 723 5 840 13 167 32 290 51 325 15 28 38 25
47 -7 10 -37 10 -614 0 -919 -8 -227 -7 -242 9 -240 14 1 25 -21 50 -94 18
-52 31 -101 29 -107 -2 -7 -1 -13 3 -13 6 0 39 -104 47 -150 1 -3 11 -36 22
-75 12 -38 34 -118 49 -177 30 -110 44 -135 44 -74 0 68 60 336 81 362 5 6 6
13 3 16 -2 3 11 55 31 115 27 85 41 157 61 314 23 185 24 213 13 300 -7 53
-10 138 -7 189 5 82 10 101 46 174 35 71 57 98 159 197 150 146 229 239 215
254 -4 5 -2 6 4 2 14 -8 107 134 140 216 21 50 32 67 47 67 17 0 19 -5 14 -43
-10 -73 -61 -180 -140 -295 -41 -61 -72 -114 -69 -119 4 -4 3 -5 -2 -1 -4 4
-36 -27 -70 -69 -90 -110 -105 -132 -134 -193 -22 -47 -26 -68 -25 -140 1 -47
11 -130 23 -185 12 -55 28 -145 37 -200 20 -130 10 -206 -57 -409 l-50 -153
20 -324 c12 -178 24 -358 28 -399 l8 -75 22 140 c12 77 29 200 39 274 18 139
27 161 67 161 40 0 49 -24 62 -178 8 -81 20 -181 29 -222 8 -41 19 -133 25
-205 8 -114 41 -331 68 -450 8 -36 10 -38 15 -15 4 14 16 93 27 175 67 479 69
488 101 506 24 13 56 4 68 -20 6 -10 33 -111 60 -225 74 -304 175 -674 221
-815 22 -67 37 -127 34 -133 -5 -7 -2 -8 6 -3 8 5 11 3 8 -6 -2 -7 -1 -18 3
-24 5 -5 33 -59 64 -120 48 -95 101 -165 126 -165 3 0 11 18 18 40 7 22 16 38
21 35 4 -3 6 5 2 17 -3 14 -1 19 6 14 14 -8 -2 49 -31 112 -18 40 -21 66 -21
167 0 139 4 154 119 440 106 263 145 420 145 590 0 125 -14 181 -77 300 -187
356 -212 431 -199 587 10 119 57 342 107 511 31 104 40 64 12 -51 -35 -143
-73 -375 -73 -446 0 -156 39 -246 182 -428 104 -130 165 -226 196 -309 49
-133 64 -292 41 -455 -13 -95 -50 -245 -74 -299 -10 -22 -19 -42 -20 -45 -1
-3 -9 -22 -18 -44 -9 -21 -17 -43 -17 -48 0 -5 -4 -6 -10 -3 -5 3 -7 0 -5 -7
3 -8 -6 -40 -19 -73 -40 -99 -57 -203 -45 -271 13 -78 25 -100 68 -122 45 -24
150 -57 157 -50 5 6 51 193 79 323 45 211 120 498 174 665 135 423 177 542
194 561 25 26 72 25 91 -3 13 -18 16 -52 16 -168 0 -277 29 -536 101 -894 23
-111 42 -202 44 -204 2 -2 11 21 20 50 10 29 46 115 81 190 35 76 73 165 84
198 28 82 26 191 -6 408 -41 276 -38 622 6 622 6 0 10 -43 10 -101 0 -185 59
-487 139 -720 57 -163 51 -252 -25 -418 l-36 -80 27 -33 c171 -209 317 -353
462 -454 70 -49 132 -91 137 -93 6 -2 19 -13 31 -24 11 -10 37 -30 58 -43 21
-14 35 -29 32 -35 -4 -5 -3 -8 2 -7 7 3 83 -54 122 -90 8 -7 24 -20 37 -29 13
-8 21 -20 17 -26 -4 -6 -1 -7 7 -2 8 5 17 2 24 -6 6 -8 32 -31 57 -51 l45 -36
36 86 c83 200 82 197 83 332 0 120 -1 127 -30 180 -16 30 -51 87 -77 125 -54
79 -142 205 -155 220 -13 15 -79 163 -102 230 -64 180 -106 426 -98 575 6 101
12 130 31 130 8 0 10 -36 7 -124 -4 -145 16 -288 60 -440 16 -56 33 -108 36
-116 3 -8 5 -21 4 -27 -1 -7 3 -13 9 -13 5 0 10 -5 10 -11 0 -6 18 -50 41 -97
37 -79 54 -100 200 -247 88 -89 156 -165 152 -168 -3 -4 -2 -7 4 -7 6 0 30
-39 54 -87 l44 -88 -1 -135 c-1 -142 -20 -253 -63 -353 -11 -26 -20 -48 -19
-50 0 -1 -7 -28 -17 -59 l-18 -57 38 -80 c22 -45 44 -81 49 -81 5 0 28 12 49
27 59 41 131 38 223 -9 99 -51 184 -104 178 -111 -3 -3 4 -3 17 0 14 4 20 2
16 -4 -4 -6 -1 -10 6 -10 16 2 126 -22 155 -34 46 -18 54 2 21 54 -16 26 -27
53 -23 59 5 7 2 8 -6 3 -10 -6 -12 -3 -8 13 4 12 2 20 -2 17 -18 -11 -52 121
-57 220 -4 88 -1 115 26 225 17 69 33 136 36 150 6 36 65 263 71 272 3 4 12
33 20 64 8 30 21 68 29 82 14 26 14 25 10 -28 -2 -30 -11 -86 -20 -125 -57
-251 -78 -461 -56 -552 14 -53 49 -119 186 -347 l59 -98 65 6 c37 3 130 9 208
13 l141 6 16 86 c31 166 20 242 -58 399 -49 98 -97 227 -126 340 -23 92 -23
90 -23 222 -1 97 2 112 35 195 19 50 59 142 88 205 78 169 79 171 90 246 28
193 1 439 -114 1044 -54 289 -50 269 -76 364 -26 97 -22 131 8 53 31 -81 84
-314 171 -752 65 -326 74 -408 68 -590 -6 -169 -21 -261 -62 -362 -73 -184
-91 -317 -52 -398 11 -22 20 -53 20 -68 0 -15 4 -23 7 -16 5 7 21 -15 42 -52
91 -169 132 -239 158 -270 16 -18 27 -36 24 -41 -3 -4 -1 -8 4 -8 5 0 15 -15
23 -32 7 -18 20 -44 30 -58 36 -53 59 -149 59 -247 0 -52 -5 -103 -10 -113 -6
-11 -6 -21 -1 -24 5 -3 12 1 15 10 3 8 11 12 17 8 7 -4 9 -3 5 4 -6 10 101
158 173 240 15 17 26 32 23 32 -8 0 49 73 86 109 29 29 49 62 58 96 34 135 54
218 60 250 4 22 9 44 12 50 3 5 7 23 9 40 7 68 101 443 153 613 66 216 92 262
148 262 31 0 67 -35 80 -78 16 -52 38 -250 53 -466 7 -97 16 -176 20 -176 12
0 24 51 64 270 51 275 54 323 22 385 -14 28 -55 85 -92 128 -183 212 -296 390
-325 512 -17 74 -15 228 6 315 11 45 18 115 18 175 0 116 -15 159 -108 299
-70 106 -139 234 -171 320 -14 38 -33 82 -41 98 -9 16 -13 32 -10 35 12 13 38
-25 86 -125 54 -114 122 -224 206 -337 72 -98 93 -144 104 -232 10 -81 9 -108
-17 -284 -39 -269 51 -415 400 -648 103 -69 153 -122 190 -199 37 -78 44 -162
24 -279 -11 -66 -11 -83 -1 -83 7 0 36 -22 66 -49 48 -45 51 -50 38 -67 -13
-17 -13 -18 1 -7 12 10 18 9 30 -5 128 -146 284 -133 399 33 32 47 81 144 175
348 74 160 185 362 242 440 l36 48 -22 132 c-26 158 -28 325 -5 435 9 42 36
142 60 221 63 201 82 289 99 448 17 163 19 260 5 334 -11 58 -67 184 -101 227
-39 50 -294 306 -302 304 -5 -1 -6 2 -2 8 4 6 2 16 -4 23 -5 7 -24 40 -40 74
-33 65 -38 95 -67 364 -27 258 -6 243 41 -31 30 -170 38 -198 76 -267 36 -62
105 -128 265 -249 297 -227 376 -395 354 -761 -5 -78 -14 -176 -21 -217 -12
-74 -12 -77 8 -91 40 -28 60 -129 116 -575 l13 -105 8 160 c19 407 40 698 82
1130 36 376 53 525 65 568 12 45 46 71 84 61 52 -13 53 -18 110 -434 97 -707
223 -1454 301 -1790 25 -107 47 -196 49 -198 2 -2 2 72 2 163 l-2 167 29 23
c17 13 32 23 35 23 22 -2 26 8 23 69 -6 112 22 257 98 503 87 287 103 453 56
595 -31 92 -60 146 -161 301 -40 61 -83 130 -96 155 -33 64 -36 169 -10 286
26 113 28 287 6 382 -9 35 -61 211 -117 390 -55 179 -118 385 -140 456 -81
271 -120 466 -104 530 12 49 31 21 39 -58z m-10258 -444 c16 -74 52 -316 63
-428 l8 -80 12 162 c17 215 31 263 75 263 20 0 20 -3 13 -192 -4 -106 -18
-300 -31 -430 -29 -283 -26 -374 12 -389 13 -5 26 -9 28 -9 2 0 5 116 7 258 4
245 12 312 36 312 15 0 22 -148 22 -445 0 -277 6 -330 29 -286 25 46 71 15 86
-58 7 -32 8 -34 21 -16 8 10 16 16 19 13 10 -10 86 -275 115 -398 30 -131 124
-670 117 -676 -9 -9 -96 167 -90 183 4 10 2 14 -4 10 -10 -6 -37 42 -111 203
-125 270 -193 432 -188 447 3 8 2 12 -3 8 -9 -5 -31 78 -46 170 -13 82 -66
255 -113 375 -25 64 -33 110 -56 315 -79 726 -83 775 -64 786 15 10 25 -12 43
-98z m788 -1337 c15 -15 25 -112 53 -501 14 -205 39 -948 32 -982 -2 -13 -10
-7 -27 22 -56 93 -91 168 -91 196 0 34 -29 172 -94 444 -25 105 -47 201 -50
215 -2 14 -9 49 -15 79 -14 68 -14 68 3 74 18 7 59 -102 96 -252 l26 -105 -4
385 c-3 258 0 393 7 412 12 30 41 36 64 13z m2111 -377 c-6 -35 -9 -39 -15
-22 -5 13 -3 32 4 47 16 33 19 27 11 -25z m-825 -1429 c-14 -93 -28 -140 -40
-140 -6 0 -9 10 -6 23 3 12 9 45 12 72 11 79 25 129 36 118 5 -5 4 -35 -2 -73z"/>
<path d="M16760 21950 c-239 -16 -481 -75 -760 -187 -220 -88 -301 -126 -455
-216 l-130 -77 -3 28 c-7 67 -57 109 -118 98 -94 -18 -364 -273 -491 -466 -31
-47 -65 -97 -75 -113 -14 -21 -16 -32 -8 -47 23 -43 133 -181 153 -192 12 -6
45 -12 72 -12 41 0 75 11 195 68 207 97 307 135 545 210 505 158 800 218 1198
246 394 28 1026 -76 1475 -241 144 -53 172 -58 196 -33 31 31 19 66 -51 156
-38 46 -98 123 -136 171 -283 361 -715 573 -1234 607 -163 11 -204 11 -373 0z
m-41 -175 c-3 -2 -45 -16 -95 -30 -49 -14 -183 -57 -299 -95 -235 -77 -295
-88 -295 -55 0 8 -2 15 -5 15 -12 0 -189 -87 -305 -150 -127 -69 -162 -81
-176 -58 -11 17 38 51 151 107 283 139 553 217 890 256 138 16 139 16 134 10z
m484 -14 c5 -5 -9 -12 -30 -15 -21 -4 -107 -27 -192 -52 -192 -56 -232 -62
-254 -39 -45 45 -6 76 132 106 69 15 110 18 211 13 69 -3 129 -9 133 -13z
m282 -46 c33 -9 67 -24 75 -35 10 -13 42 -24 100 -35 77 -15 257 -82 246 -92
-4 -5 -196 21 -286 38 -56 11 -100 41 -100 67 0 12 -21 13 -130 7 -98 -6 -134
-4 -145 5 -22 18 -18 39 8 50 36 14 168 11 232 -5z m-2182 -333 c15 -17 10
-22 -91 -89 -59 -39 -134 -89 -167 -113 -60 -42 -60 -42 30 47 89 88 190 173
204 173 5 0 15 -8 24 -18z"/>
<path d="M16154 20410 c-71 -4 -168 -16 -215 -25 -224 -46 -445 -167 -632
-349 -38 -36 -72 -66 -77 -66 -4 0 -14 -10 -23 -22 -8 -13 -33 -43 -56 -68
-22 -25 -41 -48 -41 -52 0 -5 -16 -30 -35 -57 -34 -47 -47 -77 -23 -53 20 20
28 14 18 -14 -25 -66 3 -73 47 -11 60 83 208 217 239 217 9 0 12 4 9 10 -4 6
1 7 11 3 11 -4 15 -2 11 4 -4 6 1 10 10 9 10 0 18 4 18 11 0 7 6 18 13 25 7 7
13 9 12 3 -5 -24 4 -21 80 21 44 24 83 44 86 44 3 0 24 9 47 19 147 66 213 85
537 148 69 14 247 16 323 3 108 -17 244 -65 388 -136 74 -37 188 -88 254 -114
113 -45 154 -54 281 -64 33 -3 71 -15 105 -35 110 -61 484 -192 617 -215 58
-10 25 11 -61 40 -133 43 -480 183 -457 183 3 1 59 -6 126 -13 120 -13 203 -9
241 13 20 11 27 9 -127 36 -52 10 -101 22 -107 27 -7 6 -13 7 -13 2 0 -5 -4
-4 -8 1 -4 6 -18 15 -32 21 -14 6 -47 21 -75 34 -27 12 -86 35 -129 51 -44 17
-144 64 -224 106 -128 67 -147 74 -169 64 -18 -8 -23 -8 -17 1 5 8 2 9 -10 5
-10 -4 -15 -3 -11 4 4 5 16 7 28 4 20 -6 20 -5 -3 14 -15 12 -33 18 -45 15
-15 -4 -16 -3 -6 4 10 7 4 13 -25 22 -22 7 -43 16 -49 20 -5 3 -34 17 -64 29
-175 74 -439 102 -767 81z m856 -140 c-8 -5 -19 -10 -25 -10 -5 0 -3 5 5 10 8
5 20 10 25 10 6 0 3 -5 -5 -10z m191 -117 c13 -16 12 -17 -3 -4 -17 13 -22 21
-14 21 2 0 10 -8 17 -17z m-1517 -54 c3 -3 -4 -5 -14 -6 -11 -1 -22 2 -24 6
-5 8 30 8 38 0z m-99 -47 c-3 -3 -11 0 -18 7 -9 10 -8 11 6 5 10 -3 15 -9 12
-12z m1575 1 c0 -1 -8 -7 -18 -12 -13 -7 -19 -6 -19 2 0 7 9 13 19 13 10 0 18
-1 18 -3z m357 -77 c0 -8 -6 -12 -15 -9 -11 5 -11 7 0 14 7 5 13 9 14 9 0 0 1
-6 1 -14z"/>
<path d="M16239 20050 c-58 -10 -150 -33 -205 -50 -268 -86 -593 -311 -826
-575 -44 -49 -125 -135 -179 -191 -103 -104 -117 -134 -62 -134 20 0 72 47
232 208 113 114 220 218 237 230 l31 21 6 -62 c6 -65 46 -194 72 -234 14 -21
14 -24 -2 -29 -72 -25 -193 -78 -225 -99 -44 -29 -52 -65 -15 -65 13 0 77 18
142 40 330 112 1157 282 1460 300 77 5 229 6 338 3 137 -4 197 -3 197 5 0 17
-159 27 -440 26 l-265 0 0 151 0 152 95 -45 c171 -80 202 -93 334 -138 225
-77 263 -84 517 -89 240 -6 279 -1 279 35 0 24 9 22 -159 49 -192 31 -379 111
-711 305 -272 159 -380 195 -605 201 -109 4 -163 0 -246 -15z m210 -210 c28
-5 83 -19 121 -31 68 -20 69 -21 84 -67 24 -74 37 -166 31 -214 -13 -92 -2
-84 -123 -92 -111 -6 -381 -38 -487 -57 -116 -21 -357 -81 -421 -106 -32 -12
-103 199 -104 307 0 45 1 46 66 88 127 84 285 153 284 126 -1 -5 -7 -38 -15
-73 l-13 -65 29 -35 c23 -28 29 -45 29 -83 l0 -47 48 21 c32 15 69 22 116 23
72 1 96 15 96 57 0 18 -29 99 -39 108 -4 3 -26 34 -49 70 -43 64 -43 65 -20
71 37 11 310 10 367 -1z"/>
<path d="M11806 19649 c-41 -32 -34 -68 42 -219 242 -480 306 -776 237 -1098
-36 -165 -131 -534 -150 -578 -17 -41 -7 -64 27 -64 30 0 71 102 219 545 l133
400 0 120 c1 179 -35 324 -134 547 -81 181 -172 298 -272 349 -48 24 -69 24
-102 -2z"/>
<path d="M10245 19329 c-27 -4 -70 -10 -95 -13 -111 -16 -397 -106 -393 -124
2 -6 -3 -9 -11 -6 -15 6 -136 -53 -235 -114 -3 -1 4 -9 15 -18 18 -14 18 -15
-3 -4 -25 12 -63 -1 -63 -22 0 -6 -3 -9 -6 -5 -6 6 -37 -18 -86 -64 -15 -15
-31 -24 -35 -20 -4 3 -1 -2 6 -12 12 -15 12 -17 -1 -12 -8 3 -21 -2 -29 -12
-13 -17 -12 -17 6 -4 11 7 6 0 -11 -15 -31 -29 -71 -84 -61 -84 3 0 12 6 19
14 8 8 40 28 71 46 32 18 61 39 67 48 21 38 8 -12 -16 -61 -89 -175 -172 -248
-327 -286 -93 -23 -105 -47 -19 -37 88 10 186 39 233 70 24 17 61 59 94 109
83 127 187 218 332 291 94 47 348 131 438 145 94 14 175 20 170 11 -2 -4 28
-10 68 -14 80 -7 112 -17 248 -76 52 -23 171 -68 264 -99 94 -32 184 -64 200
-71 27 -11 55 -19 135 -35 33 -7 151 -51 220 -82 38 -17 65 -23 89 -19 39 6
71 32 71 56 0 22 -32 50 -61 54 -41 5 -113 42 -139 71 -14 15 -51 45 -83 67
-93 64 -167 97 -402 182 -107 38 -163 61 -171 69 -12 12 -26 8 -19 -5 4 -7 0
-6 -7 3 -23 28 -227 77 -318 78 -8 0 -35 2 -60 4 -25 2 -67 1 -95 -4z m915
-339 c8 -5 11 -10 5 -10 -5 0 -17 5 -25 10 -8 5 -10 10 -5 10 6 0 17 -5 25
-10z m-1705 -19 c3 -5 2 -12 -3 -15 -5 -3 -9 1 -9 9 0 17 3 19 12 6z"/>
<path d="M9975 19020 c-253 -46 -430 -178 -622 -465 -56 -83 -120 -168 -144
-189 -23 -21 -79 -56 -125 -77 -45 -21 -85 -43 -89 -49 -9 -15 33 -13 91 5 27
8 77 22 111 30 80 19 199 85 273 153 l59 53 36 -63 c20 -35 50 -77 66 -93 l28
-30 -74 -34 c-41 -18 -75 -37 -75 -42 0 -13 8 -12 105 21 115 39 424 96 590
109 327 26 413 32 605 37 125 4 264 2 356 -5 145 -11 190 -9 179 10 -3 5 -23
13 -43 18 -37 10 -437 38 -604 43 -47 2 -89 5 -91 8 -3 3 5 43 19 89 18 64 24
107 24 187 0 57 2 104 5 104 19 0 242 -78 304 -107 149 -68 467 -202 530 -223
79 -26 185 -30 208 -7 27 27 9 44 -56 50 -79 9 -241 66 -701 247 -296 116
-463 176 -565 201 -92 22 -321 33 -400 19z m440 -130 c39 -6 91 -15 116 -21
45 -10 46 -12 57 -60 23 -98 12 -203 -30 -301 l-20 -48 -63 0 c-163 0 -535
-56 -662 -99 l-82 -28 -37 39 c-36 39 -104 158 -104 182 0 7 37 51 83 97 78
80 192 166 251 189 l27 10 -7 -58 c-6 -55 -5 -58 20 -70 33 -15 66 -68 66
-105 l0 -29 53 8 c28 4 71 7 94 6 33 -1 45 3 53 19 15 27 -2 78 -36 110 -26
24 -114 142 -114 152 0 17 229 22 335 7z"/>
<path d="M18460 14366 c0 -2 7 -7 16 -10 8 -3 12 -2 9 4 -6 10 -25 14 -25 6z"/>
<path d="M19910 22813 c70 -89 345 -371 382 -392 32 -17 -12 32 -177 198 -121
122 -221 221 -223 221 -2 0 6 -12 18 -27z"/>
<path d="M20300 21916 c0 -2 8 -10 18 -17 15 -13 16 -12 3 4 -13 16 -21 21
-21 13z"/>
<path d="M20345 21860 c10 -11 20 -20 23 -20 3 0 -3 9 -13 20 -10 11 -20 20
-23 20 -3 0 3 -9 13 -20z"/>
<path d="M20440 21746 c0 -2 8 -10 18 -17 15 -13 16 -12 3 4 -13 16 -21 21
-21 13z"/>
<path d="M8445 20980 c10 -11 20 -20 23 -20 3 0 -3 9 -13 20 -10 11 -20 20
-23 20 -3 0 3 -9 13 -20z"/>
<path d="M22001 16315 c0 -5 6 -21 14 -35 8 -14 14 -20 14 -15 0 6 -6 21 -14
35 -8 14 -14 21 -14 15z"/>
<path d="M16452 14920 c0 -19 2 -27 5 -17 2 9 2 25 0 35 -3 9 -5 1 -5 -18z"/>
<path d="M16463 14845 c0 -22 2 -30 4 -17 2 12 2 30 0 40 -3 9 -5 -1 -4 -23z"/>
<path d="M20505 8270 c3 -5 8 -10 11 -10 2 0 4 5 4 10 0 6 -5 10 -11 10 -5 0
-7 -4 -4 -10z"/>
<path d="M20320 7731 c0 -6 5 -13 10 -16 6 -3 10 1 10 9 0 9 -4 16 -10 16 -5
0 -10 -4 -10 -9z"/>
<path d="M21779 13133 c-13 -16 -12 -17 4 -4 9 7 17 15 17 17 0 8 -8 3 -21
-13z"/>
<path d="M18602 8545 c0 -16 2 -22 5 -12 2 9 2 23 0 30 -3 6 -5 -1 -5 -18z"/>
<path d="M10216 6232 c-3 -5 1 -9 9 -9 8 0 12 4 9 9 -3 4 -7 8 -9 8 -2 0 -6
-4 -9 -8z"/>
<path d="M10403 5984 c-5 -15 21 -53 31 -43 7 7 -6 59 -15 59 -6 0 -12 -7 -16
-16z"/>
<path d="M10521 5906 c-12 -15 -12 -19 1 -32 19 -19 27 -8 19 25 -6 22 -7 22
-20 7z"/>
<path d="M10675 5660 c-4 -6 -11 -7 -17 -4 -7 4 -8 2 -4 -5 6 -9 11 -9 22 0
14 11 18 19 10 19 -3 0 -8 -5 -11 -10z"/>
<path d="M21667 7283 c-21 -27 -132 -147 -246 -268 -114 -121 -219 -233 -233
-249 l-25 -30 10 63 c11 71 -1 115 -30 109 -14 -3 -22 -29 -40 -128 -13 -69
-24 -132 -25 -140 -2 -8 -16 18 -31 58 -22 54 -33 72 -48 72 -12 0 -19 -7 -19
-19 0 -33 40 -153 77 -229 l35 -74 -27 -38 c-29 -41 -51 -55 -61 -39 -3 5 -9
40 -12 76 -4 37 -12 68 -19 70 -7 3 -22 -15 -35 -39 l-23 -43 -5 120 c-4 97
-8 120 -20 120 -18 0 -38 -64 -39 -127 -1 -45 12 -71 22 -46 3 7 6 -1 6 -19 1
-17 4 -38 7 -47 9 -23 39 -20 57 7 16 21 16 21 16 -23 2 -99 63 -120 116 -39
26 40 34 46 56 42 34 -6 49 15 24 33 -12 9 -18 25 -17 48 1 27 -2 34 -13 29
-9 -3 -15 1 -15 10 0 8 6 17 14 20 8 3 34 32 57 64 23 32 72 90 108 128 178
189 463 534 459 555 -7 33 -43 21 -81 -27z"/>
<path d="M20735 6528 c-10 -30 -25 -135 -25 -175 0 -32 4 -43 15 -43 10 0 15
-10 15 -29 0 -41 25 -59 50 -36 20 18 20 17 20 -22 0 -84 52 -96 88 -20 28 60
37 91 23 83 -6 -4 -11 -12 -11 -17 0 -19 -51 -90 -60 -84 -6 3 -10 37 -10 76
0 53 -3 69 -14 69 -8 0 -17 -9 -21 -19 -3 -11 -12 -25 -20 -31 -13 -11 -15 5
-13 121 3 120 1 134 -15 137 -9 2 -19 -2 -22 -10z"/>
<path d="M20533 6315 c-21 -15 -43 -82 -43 -134 0 -23 -4 -29 -15 -25 -10 4
-30 -10 -58 -42 -72 -82 -127 -156 -127 -172 0 -12 -6 -10 -24 8 -25 23 -56
22 -56 -2 0 -23 56 -112 104 -164 47 -53 49 -64 9 -64 -37 0 -87 25 -132 65
-25 22 -47 35 -56 31 -21 -8 -19 -16 17 -97 l32 -71 -23 -43 c-12 -23 -35 -58
-51 -76 l-29 -34 -1 57 c0 46 -4 59 -20 68 -16 9 -23 5 -46 -27 l-26 -38 6 40
c3 22 8 76 12 121 6 68 4 82 -9 87 -22 8 -32 -8 -57 -90 -23 -75 -23 -110 -1
-105 9 2 12 -4 8 -19 -8 -31 3 -80 21 -86 8 -4 23 -1 34 6 16 10 12 -3 -17
-58 -38 -72 -92 -125 -122 -119 -25 5 -31 39 -32 194 -1 115 -4 144 -16 154
-21 18 -30 6 -55 -64 -23 -67 -25 -144 -9 -245 11 -65 10 -71 -17 -131 -15
-35 -29 -59 -30 -54 -1 5 -6 40 -9 78 -6 56 -10 69 -26 73 -10 3 -19 11 -19
18 0 23 12 45 21 39 5 -3 9 14 9 38 0 24 3 60 7 82 5 34 4 38 -13 34 -25 -4
-54 -91 -61 -184 -5 -63 -3 -73 14 -85 14 -10 22 -31 26 -68 8 -72 29 -95 65
-72 7 4 24 34 37 67 l24 59 7 -33 c6 -31 28 -52 40 -39 3 3 -7 48 -22 99 -29
99 -36 230 -16 293 8 23 10 1 11 -97 1 -136 8 -171 40 -188 46 -24 133 47 168
138 l16 44 14 -26 c28 -53 82 -21 139 80 20 35 40 64 45 64 5 0 9 8 9 19 0 10
5 31 10 47 l10 29 75 -3 c71 -4 75 -3 86 21 14 30 0 60 -65 135 l-46 53 28 24
c31 27 33 26 56 -35 30 -79 93 -156 112 -137 4 4 0 15 -8 24 -23 26 -48 78
-74 156 l-24 70 48 64 47 64 11 -74 c14 -89 35 -132 74 -152 58 -30 114 -8
140 55 7 16 15 30 17 30 3 0 18 -11 35 -25 32 -27 79 -33 97 -11 16 19 2 49
-21 43 -30 -8 -77 62 -113 172 -39 118 -79 107 -89 -26 -5 -59 -4 -83 5 -89 7
-4 17 0 24 10 12 15 13 15 19 0 11 -28 6 -46 -20 -81 -36 -47 -61 -43 -86 14
-24 55 -39 255 -19 267 13 8 15 52 3 60 -5 3 -18 -1 -29 -9z m-321 -617 c-8
-8 -12 -9 -12 -1 0 6 -3 20 -6 30 -7 17 -6 17 12 1 14 -14 16 -20 6 -30z"/>
<path d="M19514 5354 c-4 -15 -2 -68 5 -117 6 -49 9 -92 6 -95 -2 -3 -12 11
-20 31 -18 44 -41 51 -29 10 13 -45 9 -85 -15 -138 -17 -39 -24 -46 -31 -35
-5 8 -10 25 -10 37 0 28 -26 54 -46 46 -8 -3 -23 -22 -34 -42 l-19 -36 0 60
c0 33 6 89 13 125 11 49 11 68 3 77 -7 7 -17 9 -24 5 -38 -24 -61 -295 -27
-323 13 -11 21 -11 44 3 27 15 28 15 34 -5 8 -32 -53 -87 -98 -87 -54 0 -65
25 -74 169 -5 70 -14 127 -21 134 -17 17 -42 -1 -69 -54 -32 -60 -26 -145 17
-254 40 -103 47 -113 62 -98 9 9 10 24 2 58 l-10 46 21 -20 c16 -15 36 -21 70
-21 43 0 53 4 88 39 23 23 45 38 53 34 24 -8 71 49 95 114 20 54 24 60 40 51
24 -15 50 -3 50 22 0 12 -11 71 -25 132 -14 61 -25 119 -23 131 5 31 -20 32
-28 1z m-362 -342 c3 -53 1 -62 -14 -62 -15 0 -18 9 -18 48 0 26 6 65 12 87
14 45 15 40 20 -73z"/>
<path d="M18897 5132 c-57 -63 -39 -389 29 -523 25 -50 67 -76 104 -64 27 8
56 71 65 140 4 28 9 58 12 68 2 9 0 17 -5 17 -6 0 -15 -30 -22 -67 -26 -149
-85 -180 -140 -73 -24 47 -24 51 -6 44 17 -6 46 43 46 76 0 12 7 37 16 56 24
51 15 223 -14 281 -18 35 -47 63 -65 63 -2 0 -11 -8 -20 -18z m57 -51 c12 -21
20 -58 23 -104 2 -53 1 -66 -7 -49 -11 25 -32 29 -49 8 -6 -7 -15 -40 -20 -72
-8 -53 -9 -47 -10 61 -1 124 11 199 32 192 7 -2 20 -18 31 -36z m26 -218 c0
-10 -7 -27 -15 -37 -15 -19 -15 -19 -15 1 0 28 10 53 21 53 5 0 9 -8 9 -17z"/>
</g>
</svg>
